<svg xmlns:xlink="http://www.w3.org/1999/xlink" xmlns="http://www.w3.org/2000/svg" viewBox="0 0 370.01694915254234 50.76518223260027" preserveAspectRatio="xMidYMid meet" class="css-18azjue" id="edeedghh" width="370.01694915254234"  height="50.76518223260027" ><defs id="SvgjsDefs3674"></defs><g id="SvgjsG3675" featurekey="T16ghp-0" transform="matrix(0.3212384507128434,0,0,0.3212384507128434,0,1)" fill="#11999E"><defs xmlns="http://www.w3.org/2000/svg"></defs><g xmlns="http://www.w3.org/2000/svg" fill="#11999E"><polygon class="fil0" points="138,0 154,47 204,47 163,77 179,124 138,95 98,124 114,77 73,47 123,47 " style="" fill="#11999E"></polygon><polygon class="fil0" points="234,71 244,102 277,102 250,121 261,152 234,133 208,152 218,121 192,102 224,102 " style="" fill="#11999E"></polygon><polygon class="fil0" points="43,71 53,102 85,102 59,121 69,152 43,133 16,152 26,121 0,102 33,102 " style="" fill="#11999E"></polygon></g></g><g id="SvgjsG3676" featurekey="Fok8m0-0" transform="matrix(2.4811495988093237,0,0,2.4811495988093237,107.2631957540752,-18.01314428903712)" fill="#40514E"><path d="M10.76 16.64 l0.82 0 c-0.46 1.76 -1.8 3.64 -4.84 3.64 c-3.58 0 -6.04 -2.72 -6.04 -6.56 c0 -3.68 2.44 -6.46 5.8 -6.46 c1.54 0 2 0.42 3.18 0.42 c0.22 0 0.38 0 0.76 -0.08 c0.18 1.14 0.46 2.24 0.98 3.44 l-1.18 0 c-0.82 -1.88 -2 -3.06 -3.98 -3.06 c-1.62 0 -3.06 1.44 -3.06 5.18 c0 3.64 1.46 6.32 3.86 6.32 c1.7 0 3.02 -0.84 3.7 -2.84 z M17.020000000000003 9.82 c2.3 0 4.68 1.72 4.68 5.08 c0 3.46 -2.38 5.3 -4.64 5.3 c-2.3 0 -4.68 -1.84 -4.68 -5.14 c0 -3.52 2.38 -5.24 4.64 -5.24 z M19.240000000000002 15.48 c0 -2.98 -0.96 -4.98 -2.5 -4.98 c-1.22 0 -1.9 1.3 -1.9 3.98 c0 3 0.96 5.04 2.48 5.04 c1.24 0 1.92 -1.34 1.92 -4.04 z M32.02 17.88 c0 0.7 0.44 0.86 1.22 0.74 l0 0.62 c-1.76 0.42 -2.5 1 -2.98 1 c-0.36 0 -0.54 -0.26 -0.5 -0.66 l0.2 -1.76 c-0.44 0.66 -1.56 2.46 -3.42 2.46 c-1.6 0 -2.98 -0.76 -2.98 -3.54 l0 -5.28 c0 -0.5 -0.16 -0.7 -0.56 -0.68 l-0.6 0.02 l0 -0.68 l2.92 -0.22 c0.28 -0.02 0.5 0.12 0.5 0.44 l0 6.32 c0 1.5 0.22 2.58 1.34 2.58 c1.42 0 2.38 -1.86 2.6 -2.32 l0 -5.46 c0 -0.5 -0.16 -0.7 -0.56 -0.68 l-0.6 0.02 l0 -0.68 l2.9 -0.22 c0.32 -0.02 0.52 0.12 0.52 0.44 l0 7.54 z M40.32 9.78 c0.98 0 1.64 0.52 1.64 1.22 s-0.5 1.1 -1.04 1.1 c-0.92 0 -0.9 -0.8 -1.76 -0.8 c-1.16 0 -1.6 1.48 -1.76 1.94 l0 5.38 c0 0.5 0.56 0.66 1.22 0.74 l0 0.64 c-1.56 -0.08 -3.12 -0.08 -4.68 0 l0 -0.64 c0.68 -0.08 1.22 -0.24 1.22 -0.74 l0 -6.36 c0 -0.7 -0.44 -0.86 -1.22 -0.76 l0 -0.64 c1.76 -0.32 2.52 -1.12 2.98 -1.12 c0.34 0 0.54 0.24 0.48 0.62 l-0.3 2 c0.72 -1.64 1.66 -2.58 3.22 -2.58 z  M49.98 17.259999999999998 c0 1.74 -1.68 2.98 -3.18 2.98 c-1.34 0 -2.08 -0.7 -2.68 -0.7 c-0.28 0 -0.44 0.16 -0.46 0.44 l-0.64 0 l-0.24 -2.72 l0.32 0 c0.26 0 0.48 0.04 0.56 0.32 c0.3 1.1 1.82 2.02 2.88 2.02 c0.92 0 1.5 -0.62 1.5 -1.46 c0 -1.08 -0.94 -1.54 -2.32 -2.24 c-1.4 -0.7 -2.96 -1.62 -2.96 -3.38 c0 -1.52 1.3 -2.7 3.02 -2.7 c1.32 0 1.76 0.56 2.28 0.56 c0.26 0 0.42 -0.14 0.48 -0.4 l0.66 0 l0.18 2.62 l-0.34 0 c-0.26 0 -0.4 -0.08 -0.52 -0.32 c-0.5 -1.12 -1.52 -1.86 -2.44 -1.86 s-1.46 0.66 -1.46 1.42 c0 0.94 0.7 1.4 1.84 1.96 c1.26 0.6 3.52 1.52 3.52 3.46 z M59.03999999999999 17.8 c0.2 0 0.28 0.2 0.14 0.46 c-0.54 1.12 -1.62 1.94 -3.36 1.94 c-2.68 0 -4.84 -1.82 -4.84 -5.22 c0 -3.32 2.24 -5.16 4.6 -5.16 c2.3 0 4.12 1.6 4.12 4.12 c0 0.76 -0.3 1.26 -1.08 1.26 l-5.24 0 c0.02 2.52 0.92 4.32 2.74 4.32 c1.02 0 1.74 -0.44 2.26 -1.42 c0.1 -0.18 0.16 -0.3 0.38 -0.3 l0.28 0 z M57.49999999999999 14.440000000000001 c0 -2.46 -0.54 -3.94 -1.92 -3.94 c-1.42 0 -2.18 1.48 -2.2 3.94 l4.12 0 z M68.88 17 c1.04 1.5 2.14 2.46 3.04 2.52 l-0.42 0.64 c-1.56 0 -3.04 -0.48 -4.54 -2.5 l-1.94 -2.6 l-0.14 0.02 l-0.5 0.06 l0 3.5 c0 0.5 0.34 0.64 1.4 0.72 l0 0.64 c-1.72 -0.06 -3.46 -0.06 -5.18 0 l0 -0.64 c1.08 -0.08 1.42 -0.22 1.42 -0.72 l0 -9.44 c0 -0.54 -0.3 -0.9 -1.34 -0.98 l0 -0.64 c1.84 0.08 3.72 0 4.94 0 c4.18 0 5.3 1.6 5.3 3.48 c0 1.44 -1.02 2.8 -3.68 3.56 z M64.38 8.28 l0 6.14 l0.5 -0.06 c2.8 -0.42 3.72 -1.66 3.72 -3.38 c0 -1.5 -0.82 -2.7 -2.66 -2.7 l-1.56 0 z M80.53999999999999 17.8 c0 0.72 0.44 0.86 1.22 0.74 l0 0.7 c-1.76 0.42 -2.5 1 -3 1 c-0.34 0 -0.52 -0.18 -0.5 -0.6 l0.12 -1.5 c-0.44 0.96 -1.38 2.1 -3.1 2.1 c-1.42 0 -2.96 -0.7 -2.96 -2.54 s1.26 -3.06 5.94 -4.02 l0 -0.92 c0 -1.68 -0.12 -2.34 -1.02 -2.34 c-2.92 0 -1.38 3.02 -3.26 3.02 c-0.68 0 -1 -0.4 -1 -0.94 c0 -1.48 1.9 -2.7 4.34 -2.7 c2.26 0 3.22 0.68 3.22 3.08 l0 4.92 z M76.1 19.26 c1.24 0 1.96 -1.46 2.16 -2.12 l0 -2.84 c-3.32 0.72 -3.6 2.36 -3.6 3.24 c0 1.02 0.54 1.72 1.44 1.72 z M87.73999999999998 19.42 c-0.38 0.36 -1.12 0.72 -1.94 0.72 c-1.52 0 -2.56 -0.78 -2.56 -2.76 l0 -6.66 l-0.86 0 c-0.14 0 -0.22 -0.1 -0.22 -0.24 l0 -0.28 c0 -0.14 0.08 -0.22 0.22 -0.22 c1.36 0 1.92 -0.96 2.14 -2.72 l0.98 0 l0 2.72 l2.04 0 c0.14 0 0.22 0.08 0.22 0.22 l0 0.28 c0 0.14 -0.08 0.24 -0.22 0.24 l-2.04 0 l0 7.04 c0 0.8 0.18 1.5 1 1.5 c0.54 0 1 -0.34 1.24 -0.64 l0 0.8 z M96.41999999999999 17.8 c0.2 0 0.28 0.2 0.14 0.46 c-0.54 1.12 -1.62 1.94 -3.36 1.94 c-2.68 0 -4.84 -1.82 -4.84 -5.22 c0 -3.32 2.24 -5.16 4.6 -5.16 c2.3 0 4.12 1.6 4.12 4.12 c0 0.76 -0.3 1.26 -1.08 1.26 l-5.24 0 c0.02 2.52 0.92 4.32 2.74 4.32 c1.02 0 1.74 -0.44 2.26 -1.42 c0.1 -0.18 0.16 -0.3 0.38 -0.3 l0.28 0 z M94.88 14.440000000000001 c0 -2.46 -0.54 -3.94 -1.92 -3.94 c-1.42 0 -2.18 1.48 -2.2 3.94 l4.12 0 z M104.25999999999999 9.78 c0.98 0 1.64 0.52 1.64 1.22 s-0.5 1.1 -1.04 1.1 c-0.92 0 -0.9 -0.8 -1.76 -0.8 c-1.16 0 -1.6 1.48 -1.76 1.94 l0 5.38 c0 0.5 0.56 0.66 1.22 0.74 l0 0.64 c-1.56 -0.08 -3.12 -0.08 -4.68 0 l0 -0.64 c0.68 -0.08 1.22 -0.24 1.22 -0.74 l0 -6.36 c0 -0.7 -0.44 -0.86 -1.22 -0.76 l0 -0.64 c1.76 -0.32 2.52 -1.12 2.98 -1.12 c0.34 0 0.54 0.24 0.48 0.62 l-0.3 2 c0.72 -1.64 1.66 -2.58 3.22 -2.58 z " fill="#40514E"></path></g><g id="SvgjsG3677" featurekey="TflPBd-0" transform="matrix(0.5503928265451986,0,0,0.5503928265451986,134.0863590147238,39.58927935674457)" fill="#40514E"><path d="M6.08 13.36 l-0.24 -0.000039062 l0.26 -0.46 l3.62 6.06 c0.08 0.14666 0.12 0.3 0.12 0.46 c0 0.24 -0.08666 0.44666 -0.26 0.62 s-0.38 0.26 -0.62 0.26 c-0.16 0 -0.31 -0.04 -0.45 -0.12 s-0.25 -0.18666 -0.33 -0.32 l-3.88 -6.5 l-0.86 0 l0 6.06 c0 0.24 -0.08666 0.44666 -0.26 0.62 s-0.38 0.26 -0.62 0.26 c-0.25334 0 -0.46668 -0.08666 -0.64002 -0.26 s-0.26 -0.38 -0.26 -0.62 l0 -14.02 c0 -0.24 0.08666 -0.44666 0.26 -0.62 s0.38668 -0.26 0.64002 -0.26 l3.52 0 c0.61334 0 1.19 0.11666 1.73 0.35 s1.01 0.55 1.41 0.95 s0.71666 0.86666 0.95 1.4 s0.35 1.1067 0.35 1.72 s-0.11666 1.1867 -0.35 1.72 s-0.55 1 -0.95 1.4 s-0.87 0.71666 -1.41 0.95 s-1.1167 0.35 -1.73 0.35 z M6.08 6.279999999999999 l-2.64 0 l0 5.3 l2.64 0 c0.36 0 0.70334 -0.07 1.03 -0.21 s0.61 -0.33 0.85 -0.57 s0.43 -0.52 0.57 -0.84 s0.21 -0.66 0.21 -1.02 s-0.07 -0.70334 -0.21 -1.03 s-0.33 -0.61 -0.57 -0.85 s-0.52334 -0.43 -0.85 -0.57 s-0.67 -0.21 -1.03 -0.21 z M36.778 20.22 c-0.10666 0.05334 -0.21992 0.08 -0.33992 0.08 c-0.17334 0 -0.33668 -0.04666 -0.49002 -0.14 s-0.26334 -0.22668 -0.33 -0.40002 l-1.58 -3.72 l-7.26 0 l-1.58 3.72 c-0.09334 0.22666 -0.25334 0.38666 -0.48 0.48 s-0.45332 0.08668 -0.67998 -0.01998 c-0.22666 -0.09334 -0.38666 -0.25334 -0.48 -0.48 s-0.08668 -0.45332 0.01998 -0.67998 l1.8 -4.26 l4.22 -9.88 c0.06666 -0.17334 0.17332 -0.30668 0.31998 -0.40002 s0.31332 -0.14 0.49998 -0.14 c0.17334 0 0.33334 0.04666 0.48 0.14 s0.25332 0.22668 0.31998 0.40002 c1.0133 2.3734 2.02 4.73 3.02 7.07 s2.0066 4.6966 3.02 7.07 c0.09334 0.22666 0.09334 0.45332 0 0.67998 s-0.25334 0.38666 -0.48 0.48 z M30.418 7.539999999999999 l-2.88 6.72 l5.74 0 z M58.016 6.279999999999999 l-3.24 0 l0 13.14 c0 0.24 -0.08666 0.44666 -0.26 0.62 s-0.38 0.26 -0.62 0.26 c-0.25334 0 -0.46668 -0.08666 -0.64002 -0.26 s-0.26 -0.38 -0.26 -0.62 l0 -13.14 l-3.24 0 c-0.24 0 -0.44666 -0.08334 -0.62 -0.25 s-0.26 -0.37666 -0.26 -0.63 c0 -0.24 0.08666 -0.44666 0.26 -0.62 s0.38 -0.26 0.62 -0.26 l8.26 0 c0.24 0 0.44666 0.08666 0.62 0.26 s0.26 0.38 0.26 0.62 c0 0.25334 -0.08666 0.46334 -0.26 0.63 s-0.38 0.25 -0.62 0.25 z M80.75399999999999 20.3 l-6.88 -0.000019531 c-0.25334 0 -0.46668 -0.08666 -0.64002 -0.26 s-0.26 -0.38 -0.26 -0.62 l0 -0.04 l0 -0.04 l0 -13.94 c0 -0.24 0.08666 -0.44666 0.26 -0.62 s0.38668 -0.26 0.64002 -0.26 l6.88 0 c0.25334 0 0.46668 0.08666 0.64002 0.26 s0.26 0.38 0.26 0.62 c0 0.25334 -0.08666 0.46334 -0.26 0.63 s-0.38668 0.25 -0.64002 0.25 l-6 0 l0 5.1 l5.06 0 c0.24 0 0.44666 0.08334 0.62 0.25 s0.26 0.37666 0.26 0.63 c0 0.24 -0.08666 0.44666 -0.26 0.62 s-0.38 0.26 -0.62 0.26 l-5.06 0 l0 5.38 l6 0 c0.25334 0 0.46668 0.08666 0.64002 0.26 s0.26 0.38668 0.26 0.64002 c0 0.24 -0.08666 0.44666 -0.26 0.62 s-0.38668 0.26 -0.64002 0.26 z M124.85 5.84 l-4.54 8.12 l0 5.46 c0 0.24 -0.08666 0.44666 -0.26 0.62 s-0.38 0.26 -0.62 0.26 s-0.44666 -0.08666 -0.62 -0.26 s-0.26 -0.38 -0.26 -0.62 l0 -5.46 l-4.54 -8.12 c-0.08 -0.13334 -0.12 -0.28 -0.12 -0.44 c0 -0.24 0.08666 -0.44666 0.26 -0.62 s0.38 -0.26 0.62 -0.26 c0.16 0 0.31 0.04 0.45 0.12 s0.25 0.18666 0.33 0.32 l3.88 6.94 l3.88 -6.94 c0.08 -0.13334 0.19 -0.24 0.33 -0.32 s0.29 -0.12 0.45 -0.12 c0.24 0 0.44666 0.08666 0.62 0.26 s0.26 0.38 0.26 0.62 c0 0.16 -0.04 0.30666 -0.12 0.44 z M145.30800000000002 20.3 c-1.0933 0 -2.12 -0.20666 -3.08 -0.62 s-1.7967 -0.97668 -2.51 -1.69 s-1.2767 -1.55 -1.69 -2.51 s-0.62 -1.9867 -0.62 -3.08 c0 -1.08 0.20666 -2.1 0.62 -3.06 s0.97668 -1.7967 1.69 -2.51 s1.55 -1.2767 2.51 -1.69 s1.9867 -0.62 3.08 -0.62 c1.08 0 2.1 0.20666 3.06 0.62 s1.7967 0.97668 2.51 1.69 s1.2767 1.55 1.69 2.51 s0.62 1.98 0.62 3.06 c0 1.0933 -0.20666 2.12 -0.62 3.08 s-0.97668 1.7967 -1.69 2.51 s-1.55 1.2767 -2.51 1.69 s-1.98 0.62 -3.06 0.62 z M145.30800000000002 6.279999999999999 c-0.84 0 -1.6333 0.16 -2.38 0.48 s-1.4 0.75666 -1.96 1.31 s-1 1.2033 -1.32 1.95 s-0.48 1.54 -0.48 2.38 s0.16 1.6333 0.48 2.38 s0.76 1.4 1.32 1.96 s1.2133 1 1.96 1.32 s1.54 0.48 2.38 0.48 s1.6333 -0.16 2.38 -0.48 s1.3967 -0.76 1.95 -1.32 s0.99 -1.2133 1.31 -1.96 s0.48 -1.54 0.48 -2.38 s-0.16 -1.6333 -0.48 -2.38 s-0.75666 -1.3967 -1.31 -1.95 s-1.2033 -0.99 -1.95 -1.31 s-1.54 -0.48 -2.38 -0.48 z M174.46600000000004 20.3 c-0.84 0 -1.6266 -0.16004 -2.36 -0.48004 s-1.3767 -0.75334 -1.93 -1.3 s-0.99 -1.19 -1.31 -1.93 s-0.48 -1.53 -0.48 -2.37 l0 -8.82 c0 -0.24 0.08666 -0.44666 0.26 -0.62 s0.38668 -0.26 0.64002 -0.26 c0.24 0 0.44666 0.08666 0.62 0.26 s0.26 0.38 0.26 0.62 l0 8.82 c0 0.6 0.11334 1.16 0.34 1.68 s0.53332 0.97334 0.91998 1.36 s0.84332 0.69332 1.37 0.91998 s1.0833 0.34 1.67 0.34 c0.6 0 1.16 -0.11334 1.68 -0.34 s0.97666 -0.53332 1.37 -0.91998 s0.70334 -0.84332 0.93 -1.37 s0.34 -1.0833 0.34 -1.67 l0 -8.82 c0 -0.24 0.08666 -0.44666 0.26 -0.62 s0.38 -0.26 0.62 -0.26 c0.25334 0 0.46668 0.08666 0.64002 0.26 s0.26 0.38 0.26 0.62 l0 8.82 c0 0.84 -0.16 1.63 -0.48 2.37 s-0.75666 1.3833 -1.31 1.93 s-1.2 0.98 -1.94 1.3 s-1.53 0.48 -2.37 0.48 z M200.60400000000004 13.36 l-0.24 -0.000039062 l0.26 -0.46 l3.62 6.06 c0.08 0.14666 0.12 0.3 0.12 0.46 c0 0.24 -0.08666 0.44666 -0.26 0.62 s-0.38 0.26 -0.62 0.26 c-0.16 0 -0.31 -0.04 -0.45 -0.12 s-0.25 -0.18666 -0.33 -0.32 l-3.88 -6.5 l-0.86 0 l0 6.06 c0 0.24 -0.08666 0.44666 -0.26 0.62 s-0.38 0.26 -0.62 0.26 c-0.25334 0 -0.46668 -0.08666 -0.64002 -0.26 s-0.26 -0.38 -0.26 -0.62 l0 -14.02 c0 -0.24 0.08666 -0.44666 0.26 -0.62 s0.38668 -0.26 0.64002 -0.26 l3.52 0 c0.61334 0 1.19 0.11666 1.73 0.35 s1.01 0.55 1.41 0.95 s0.71666 0.86666 0.95 1.4 s0.35 1.1067 0.35 1.72 s-0.11666 1.1867 -0.35 1.72 s-0.55 1 -0.95 1.4 s-0.87 0.71666 -1.41 0.95 s-1.1167 0.35 -1.73 0.35 z M200.60400000000004 6.279999999999999 l-2.64 0 l0 5.3 l2.64 0 c0.36 0 0.70334 -0.07 1.03 -0.21 s0.61 -0.33 0.85 -0.57 s0.43 -0.52 0.57 -0.84 s0.21 -0.66 0.21 -1.02 s-0.07 -0.70334 -0.21 -1.03 s-0.33 -0.61 -0.57 -0.85 s-0.52334 -0.43 -0.85 -0.57 s-0.67 -0.21 -1.03 -0.21 z M246.20000000000002 20.3 c-1.1067 0 -2.1434 -0.21006 -3.11 -0.63006 s-1.81 -0.99 -2.53 -1.71 s-1.29 -1.5633 -1.71 -2.53 s-0.63 -2.0034 -0.63 -3.11 c0 -1.0933 0.21 -2.1166 0.63 -3.07 s0.99 -1.78 1.71 -2.48 s1.5633 -1.25 2.53 -1.65 s2.0034 -0.6 3.11 -0.6 c1.0667 0 2.08 0.19666 3.04 0.59 s1.82 0.97 2.58 1.73 c0.18666 0.18666 0.28 0.4 0.28 0.64 s-0.09334 0.44666 -0.28 0.62 c-0.17334 0.17334 -0.38 0.26 -0.62 0.26 s-0.44666 -0.08666 -0.62 -0.26 c-0.6 -0.6 -1.2733 -1.0533 -2.02 -1.36 s-1.5333 -0.46 -2.36 -0.46 c-0.86666 0 -1.6767 0.15666 -2.43 0.47 s-1.41 0.74 -1.97 1.28 s-1 1.1767 -1.32 1.91 s-0.48 1.5267 -0.48 2.38 s0.16334 1.6567 0.49 2.41 s0.77 1.41 1.33 1.97 s1.2167 1.0033 1.97 1.33 s1.5567 0.49 2.41 0.49 c0.82666 0 1.6133 -0.15334 2.36 -0.46 s1.42 -0.75332 2.02 -1.34 c0.17334 -0.18666 0.38 -0.28 0.62 -0.28 s0.44666 0.09334 0.62 0.28 c0.18666 0.17334 0.28 0.38 0.28 0.62 s-0.09334 0.44666 -0.28 0.62 c-0.76 0.76 -1.62 1.34 -2.58 1.74 s-1.9733 0.6 -3.04 0.6 z M274.73800000000006 20.3 c-1.0933 0 -2.12 -0.20666 -3.08 -0.62 s-1.7967 -0.97668 -2.51 -1.69 s-1.2767 -1.55 -1.69 -2.51 s-0.62 -1.9867 -0.62 -3.08 c0 -1.08 0.20666 -2.1 0.62 -3.06 s0.97668 -1.7967 1.69 -2.51 s1.55 -1.2767 2.51 -1.69 s1.9867 -0.62 3.08 -0.62 c1.08 0 2.1 0.20666 3.06 0.62 s1.7967 0.97668 2.51 1.69 s1.2767 1.55 1.69 2.51 s0.62 1.98 0.62 3.06 c0 1.0933 -0.20666 2.12 -0.62 3.08 s-0.97668 1.7967 -1.69 2.51 s-1.55 1.2767 -2.51 1.69 s-1.98 0.62 -3.06 0.62 z M274.73800000000006 6.279999999999999 c-0.84 0 -1.6333 0.16 -2.38 0.48 s-1.4 0.75666 -1.96 1.31 s-1 1.2033 -1.32 1.95 s-0.48 1.54 -0.48 2.38 s0.16 1.6333 0.48 2.38 s0.76 1.4 1.32 1.96 s1.2133 1 1.96 1.32 s1.54 0.48 2.38 0.48 s1.6333 -0.16 2.38 -0.48 s1.3967 -0.76 1.95 -1.32 s0.99 -1.2133 1.31 -1.96 s0.48 -1.54 0.48 -2.38 s-0.16 -1.6333 -0.48 -2.38 s-0.75666 -1.3967 -1.31 -1.95 s-1.2033 -0.99 -1.95 -1.31 s-1.54 -0.48 -2.38 -0.48 z M303.8960000000001 20.3 c-0.84 0 -1.6266 -0.16004 -2.36 -0.48004 s-1.3767 -0.75334 -1.93 -1.3 s-0.99 -1.19 -1.31 -1.93 s-0.48 -1.53 -0.48 -2.37 l0 -8.82 c0 -0.24 0.08666 -0.44666 0.26 -0.62 s0.38668 -0.26 0.64002 -0.26 c0.24 0 0.44666 0.08666 0.62 0.26 s0.26 0.38 0.26 0.62 l0 8.82 c0 0.6 0.11334 1.16 0.34 1.68 s0.53332 0.97334 0.91998 1.36 s0.84332 0.69332 1.37 0.91998 s1.0833 0.34 1.67 0.34 c0.6 0 1.16 -0.11334 1.68 -0.34 s0.97666 -0.53332 1.37 -0.91998 s0.70334 -0.84332 0.93 -1.37 s0.34 -1.0833 0.34 -1.67 l0 -8.82 c0 -0.24 0.08666 -0.44666 0.26 -0.62 s0.38 -0.26 0.62 -0.26 c0.25334 0 0.46668 0.08666 0.64002 0.26 s0.26 0.38 0.26 0.62 l0 8.82 c0 0.84 -0.16 1.63 -0.48 2.37 s-0.75666 1.3833 -1.31 1.93 s-1.2 0.98 -1.94 1.3 s-1.53 0.48 -2.37 0.48 z M330.03400000000005 13.36 l-0.24 -0.000039062 l0.26 -0.46 l3.62 6.06 c0.08 0.14666 0.12 0.3 0.12 0.46 c0 0.24 -0.08666 0.44666 -0.26 0.62 s-0.38 0.26 -0.62 0.26 c-0.16 0 -0.31 -0.04 -0.45 -0.12 s-0.25 -0.18666 -0.33 -0.32 l-3.88 -6.5 l-0.86 0 l0 6.06 c0 0.24 -0.08666 0.44666 -0.26 0.62 s-0.38 0.26 -0.62 0.26 c-0.25334 0 -0.46668 -0.08666 -0.64002 -0.26 s-0.26 -0.38 -0.26 -0.62 l0 -14.02 c0 -0.24 0.08666 -0.44666 0.26 -0.62 s0.38668 -0.26 0.64002 -0.26 l3.52 0 c0.61334 0 1.19 0.11666 1.73 0.35 s1.01 0.55 1.41 0.95 s0.71666 0.86666 0.95 1.4 s0.35 1.1067 0.35 1.72 s-0.11666 1.1867 -0.35 1.72 s-0.55 1 -0.95 1.4 s-0.87 0.71666 -1.41 0.95 s-1.1167 0.35 -1.73 0.35 z M330.03400000000005 6.279999999999999 l-2.64 0 l0 5.3 l2.64 0 c0.36 0 0.70334 -0.07 1.03 -0.21 s0.61 -0.33 0.85 -0.57 s0.43 -0.52 0.57 -0.84 s0.21 -0.66 0.21 -1.02 s-0.07 -0.70334 -0.21 -1.03 s-0.33 -0.61 -0.57 -0.85 s-0.52334 -0.43 -0.85 -0.57 s-0.67 -0.21 -1.03 -0.21 z M352.75200000000007 20.3 c-0.61334 0 -1.1867 -0.11668 -1.72 -0.35002 s-1 -0.55 -1.4 -0.95 s-0.71666 -0.86666 -0.95 -1.4 s-0.35 -1.1067 -0.35 -1.72 c0 -0.25334 0.08666 -0.46668 0.26 -0.64002 s0.38668 -0.26 0.64002 -0.26 c0.24 0 0.44666 0.08666 0.62 0.26 s0.26 0.38668 0.26 0.64002 c0 0.36 0.07 0.7 0.21 1.02 s0.33 0.6 0.57 0.84 s0.52 0.43 0.84 0.57 s0.66 0.21 1.02 0.21 s0.70334 -0.07 1.03 -0.21 s0.61 -0.33 0.85 -0.57 s0.43 -0.52 0.57 -0.84 s0.21 -0.66 0.21 -1.02 c0 -0.44 -0.08666 -0.80334 -0.26 -1.09 s-0.41334 -0.53666 -0.72 -0.75 c-0.14666 -0.10666 -0.31332 -0.20332 -0.49998 -0.28998 s-0.38 -0.17666 -0.58 -0.27 c-0.2 -0.08 -0.40666 -0.16 -0.62 -0.24 s-0.43334 -0.16 -0.66 -0.24 c-0.44 -0.16 -0.88334 -0.34 -1.33 -0.54 s-0.84666 -0.45 -1.2 -0.75 s-0.64334 -0.67334 -0.87 -1.12 s-0.34 -0.99666 -0.34 -1.65 c0 -0.61334 0.11666 -1.1867 0.35 -1.72 s0.55 -1 0.95 -1.4 s0.86666 -0.71666 1.4 -0.95 s1.1067 -0.35 1.72 -0.35 s1.19 0.11666 1.73 0.35 s1.01 0.55 1.41 0.95 s0.71666 0.86666 0.95 1.4 s0.35 1.1067 0.35 1.72 c0 0.24 -0.08666 0.44666 -0.26 0.62 s-0.38668 0.26 -0.64002 0.26 c-0.24 0 -0.44666 -0.08666 -0.62 -0.26 s-0.26 -0.38 -0.26 -0.62 c0 -0.36 -0.07 -0.70334 -0.21 -1.03 s-0.33 -0.61 -0.57 -0.85 s-0.52334 -0.43 -0.85 -0.57 s-0.67 -0.21 -1.03 -0.21 s-0.7 0.07 -1.02 0.21 s-0.6 0.33 -0.84 0.57 s-0.43 0.52334 -0.57 0.85 s-0.21 0.67 -0.21 1.03 c0 0.4 0.08334 0.73334 0.25 1 s0.40332 0.5 0.70998 0.7 c0.32 0.2 0.68 0.38 1.08 0.54 l0.64 0.24 l0.66 0.24 c0.44 0.16 0.88334 0.34334 1.33 0.55 s0.84666 0.46666 1.2 0.78 s0.64334 0.70334 0.87 1.17 s0.34 1.04 0.34 1.72 c0 0.61334 -0.11666 1.1867 -0.35 1.72 s-0.55 1 -0.95 1.4 s-0.87 0.71666 -1.41 0.95 s-1.1167 0.35 -1.73 0.35 z M380.1500000000001 20.3 l-6.88 -0.000019531 c-0.25334 0 -0.46668 -0.08666 -0.64002 -0.26 s-0.26 -0.38 -0.26 -0.62 l0 -0.04 l0 -0.04 l0 -13.94 c0 -0.24 0.08666 -0.44666 0.26 -0.62 s0.38668 -0.26 0.64002 -0.26 l6.88 0 c0.25334 0 0.46668 0.08666 0.64002 0.26 s0.26 0.38 0.26 0.62 c0 0.25334 -0.08666 0.46334 -0.26 0.63 s-0.38668 0.25 -0.64002 0.25 l-6 0 l0 5.1 l5.06 0 c0.24 0 0.44666 0.08334 0.62 0.25 s0.26 0.37666 0.26 0.63 c0 0.24 -0.08666 0.44666 -0.26 0.62 s-0.38 0.26 -0.62 0.26 l-5.06 0 l0 5.38 l6 0 c0.25334 0 0.46668 0.08666 0.64002 0.26 s0.26 0.38668 0.26 0.64002 c0 0.24 -0.08666 0.44666 -0.26 0.62 s-0.38668 0.26 -0.64002 0.26 z" fill="#40514E"></path></g></svg>